<?xml version="1.0"?><svg width="40px" height="40px" viewBox="0 0 40 40"  xmlns="http://www.w3.org/2000/svg" xmlns:xlink="http://www.w3.org/1999/xlink">
 <title>Atom</title>
 <defs>
  <linearGradient id="linearGradient3855">
   <stop stop-color="#dbdfdd" offset="0" id="stop3857"/>
   <stop stop-color="#000000" id="stop3859" offset="0.678909"/>
   <stop stop-color="#dddddf" offset="1" id="stop3861"/>
  </linearGradient>
  <linearGradient id="linearGradient3845">
   <stop stop-color="#dbdfdd" offset="0" id="stop3847"/>
   <stop stop-color="#000000" stop-opacity="0.93007" id="stop3849" offset="0.48473"/>
   <stop stop-color="#dddddf" offset="1" id="stop3851"/>
  </linearGradient>
  <linearGradient id="linearGradient3726">
   <stop stop-color="#dbdfdd" id="stop3728" offset="0"/>
   <stop stop-color="#000000" stop-opacity="0.93007" offset="0.5" id="stop3734"/>
   <stop stop-color="#dddddf" id="stop3730" offset="1"/>
  </linearGradient>
  <linearGradient id="linearGradient3667">
   <stop stop-color="#c60000" id="stop3669" offset="0"/>
   <stop stop-color="#000000" id="stop3671" offset="1"/>
  </linearGradient>
  <linearGradient gradientTransform="translate(-201.91588,-249.70146)" y2="497.22324" x2="435.61661" y1="398.92276" x1="408.91071" gradientUnits="userSpaceOnUse" id="linearGradient3744-8" xlink:href="#linearGradient3726-5"/>
  <linearGradient id="linearGradient3726-5">
   <stop stop-color="#dbdfdd" id="stop3728-6" offset="0"/>
   <stop stop-color="#000000" stop-opacity="0.93007" offset="0.5" id="stop3734-2"/>
   <stop stop-color="#dddddf" id="stop3730-5" offset="1"/>
  </linearGradient>
  <linearGradient xlink:href="#linearGradient3726-5-5" id="linearGradient3765-1" gradientUnits="userSpaceOnUse" gradientTransform="matrix(0.70710678,0.70710678,-0.70710678,0.70710678,415.56861,-130.43094)" x1="408.91071" y1="398.92276" x2="435.61661" y2="497.22324"/>
  <linearGradient id="linearGradient3726-5-5">
   <stop stop-color="#dbdfdd" id="stop3728-6-2" offset="0"/>
   <stop stop-color="#000000" stop-opacity="0.93007" offset="0.5" id="stop3734-2-6"/>
   <stop stop-color="#dddddf" id="stop3730-5-9" offset="1"/>
  </linearGradient>
  <radialGradient r="19.178572" fy="433.21039" fx="372.85715" cy="439.23718" cx="364.82144" gradientUnits="userSpaceOnUse" id="radialGradient3869" xlink:href="#linearGradient3667"/>
  <linearGradient y2="1.004049" x2="1.307293" y1="0.398775" x1="1.017716" id="linearGradient3878" xlink:href="#linearGradient3855"/>
  <linearGradient y2="1.038453" x2="0.885225" y1="0.811063" x1="0.509437" id="linearGradient3881" xlink:href="#linearGradient3845"/>
  <linearGradient y2="0.977427" x2="0.232708" y1="0.779013" x1="0.348428" id="linearGradient3884" xlink:href="#linearGradient3726-5"/>
  <linearGradient y2="598.00287" x2="395.77124" y1="470.03882" x1="417.34821" gradientTransform="matrix(-0.5,0.8660254,0.8660254,0.5,169.88631,-98.086212)" gradientUnits="userSpaceOnUse" id="linearGradient3881-7" xlink:href="#linearGradient3845-3"/>
  <linearGradient id="linearGradient3845-3">
   <stop stop-color="#dbdfdd" offset="0" id="stop3847-6"/>
   <stop stop-color="#000000" stop-opacity="0.93007" id="stop3849-0" offset="0.48473"/>
   <stop stop-color="#dddddf" offset="1" id="stop3851-2"/>
  </linearGradient>
  <linearGradient xlink:href="#linearGradient3845-3" id="linearGradient3907" x1="0.728008" y1="0.88391" x2="0.936363" y2="1.023627"/>
  <clipPath id="clipPath3940" clipPathUnits="userSpaceOnUse">
   <rect fill="#000000" stroke-width="10" ry="1.720327" y="313.178608" x="-245.892861" height="195.26787" width="175.98215" id="rect3942"/>
  </clipPath>
  <linearGradient y2="497.22324" x2="435.61661" y1="398.92276" x1="408.91071" gradientTransform="matrix(0.5,0.8660254,-0.8660254,0.5,560.56544,-98.08625)" gradientUnits="userSpaceOnUse" id="linearGradient3884-6" xlink:href="#linearGradient3726-5-2"/>
  <linearGradient id="linearGradient3726-5-2">
   <stop stop-color="#dbdfdd" id="stop3728-6-24" offset="0"/>
   <stop stop-color="#000000" stop-opacity="0.93007" offset="0.5" id="stop3734-2-7"/>
   <stop stop-color="#dddddf" id="stop3730-5-0" offset="1"/>
  </linearGradient>
  <linearGradient xlink:href="#linearGradient3726-5-2" id="linearGradient4009" x1="0.348428" y1="0.779013" x2="0.232708" y2="0.977427"/>
  <clipPath id="clipPath4034" clipPathUnits="userSpaceOnUse">
   <rect fill="#000000" fill-rule="nonzero" stroke-width="10" ry="1.658669" y="202.697038" x="-9.213104" height="104.41509" width="189.78978" id="rect4036"/>
  </clipPath>
  <linearGradient y2="497.22324" x2="435.61661" y1="398.92276" x1="408.91071" gradientTransform="matrix(0.5,0.8660254,-0.8660254,0.5,560.56544,-98.08625)" gradientUnits="userSpaceOnUse" id="linearGradient3884-65" xlink:href="#linearGradient3726-5-4"/>
  <linearGradient id="linearGradient3726-5-4">
   <stop stop-color="#dbdfdd" id="stop3728-6-6" offset="0"/>
   <stop stop-color="#000000" stop-opacity="0.93007" offset="0.5" id="stop3734-2-4"/>
   <stop stop-color="#dddddf" id="stop3730-5-2" offset="1"/>
  </linearGradient>
  <linearGradient xlink:href="#linearGradient3726-5-4" id="linearGradient4056" x1="0.348428" y1="0.779013" x2="0.232708" y2="0.977427"/>
  <clipPath id="clipPath4081" clipPathUnits="userSpaceOnUse">
   <rect fill="#000000" fill-rule="nonzero" stroke-width="10" ry="1.658669" y="73.713698" x="218.657466" height="130.82597" width="122.84129" id="rect4083"/>
  </clipPath>
 </defs>
 <metadata id="metadata7">image/svg+xml</metadata>
 <g>
  <title>Layer 1</title>
  <g id="layer1">
   <g id="g4085">
    <path opacity="0.8" fill="#000000" stroke-width="3" id="path3655" d="m180.985886,186.723221a17.67857,17.67857 0 1 1 -35.357147,0a17.67857,17.67857 0 1 1 35.357147,0z"/>
    <path fill="#000000" stroke="#000000" stroke-width="3" stroke-miterlimit="4" d="m323.716919,94.110092c-2.760071,-4.78064 -9.432373,-7.016449 -19.179077,-6.969147c7.008545,0.282715 11.815735,2.152985 13.898315,5.76004c10.4729,18.139679 -51.3255,73.403137 -138.014008,123.452759c-86.688507,50.049637 -165.447266,75.936905 -175.920212,57.797256c-2.086838,-3.614502 -1.304199,-8.730591 1.972229,-14.958984c-4.933395,8.435577 -6.330017,15.348572 -3.565521,20.13681c11.649765,20.177948 92.906998,-4.925934 181.497879,-56.073929c88.590881,-51.14798 150.960114,-108.966858 139.310394,-129.144806zm-317.242783,165.081924c6.519043,-11.146835 19.242615,-24.968216 36.613693,-40.083267c-18.202255,15.563568 -31.033005,29.474426 -36.613693,40.083267zm353.856491,-205.165176c24.742554,-21.155731 59.419128,-45.347473 99.412415,-68.437592c39.993286,-23.090134 78.282227,-41.02507 108.974915,-51.874893c-31.189087,10.72261 -69.467529,28.415771 -109.256165,51.387756c-39.788635,22.972 -74.25061,47.275497 -99.131165,68.924759l0,-0.000031zm208.387329,-120.312485c21.801819,-7.495316 40.147156,-11.592667 53.062622,-11.655334c-11.976624,-0.483154 -30.45575,3.663849 -53.062622,11.655334z" id="path2816-2"/>
    <path fill="#000000" stroke="#000000" stroke-width="3" stroke-miterlimit="4" d="m2.903061,94.110092c2.760086,-4.78064 9.432343,-7.016449 19.179092,-6.969147c-7.00853,0.282715 -11.815765,2.152985 -13.8983,5.76004c-10.472961,18.139679 51.325485,73.403137 138.013962,123.452759c86.688507,50.049637 165.447266,75.936905 175.920227,57.797256c2.086853,-3.614502 1.304199,-8.730591 -1.972229,-14.958984c4.933411,8.435577 6.330017,15.348572 3.565552,20.13681c-11.64978,20.177948 -92.907013,-4.925934 -181.497925,-56.073929c-88.590897,-51.14798 -150.960144,-108.966858 -139.310379,-129.144806zm317.242752,165.081924c-6.519043,-11.146835 -19.242584,-24.968216 -36.613678,-40.083267c18.20224,15.563568 31.03299,29.474426 36.613678,40.083267zm-36.613678,-40.083267c-24.742554,-21.155731 -59.419128,-45.347473 -99.412415,-68.437592c-39.993317,-23.090149 -78.282227,-41.025055 -108.974945,-51.874878c31.189087,10.722595 69.467529,28.415771 109.256195,51.387726c39.788635,22.972015 74.25058,47.275513 99.131165,68.924774l0,-0.000031zm-208.38736,-120.3125c-21.801788,-7.4953 -40.147156,-11.592651 -53.062622,-11.655334c11.976639,-0.483154 30.455734,3.663849 53.062622,11.655334z" id="path2816-2-4"/>
    <path fill="#000000" stroke="#000000" stroke-width="3" stroke-miterlimit="4" d="m163.3125,1.5c-5.520203,0 -10.792603,4.660431 -15.625,13.124985c3.749115,-5.928162 7.77243,-9.156235 11.9375,-9.156235c20.945892,0 37.90625,81.150742 37.90625,181.249985c0,100.099258 -16.960358,181.250046 -37.90625,181.250046c-4.173676,0 -8.212982,-3.23587 -11.96875,-9.187531c4.838715,8.490234 10.127258,13.156281 15.65625,13.156281c23.2995,0 42.1875,-82.922821 42.1875,-185.218796c0,-102.295959 -18.888,-185.218735 -42.1875,-185.218735zm-15.65625,357.28125c-6.39389,-11.219055 -12.001801,-29.148682 -16.40625,-51.75c4.377319,23.545349 10.009064,41.612579 16.40625,51.75zm-16.40625,-51.75c-5.950134,-32.005524 -9.5625,-74.132217 -9.5625,-120.312515c0,-46.180267 3.612366,-88.306915 9.5625,-120.3125c-6.308502,32.371887 -10.125,74.36853 -10.125,120.3125c0,45.94397 3.816498,87.940628 10.125,120.312515zm0,-240.625015c4.40976,-22.62854 10.034027,-40.564758 16.4375,-51.78125c-6.406738,10.130524 -12.054901,28.207397 -16.4375,51.78125z" id="path2816"/>
    <path fill="#000000" stroke="#000000" stroke-width="3" stroke-miterlimit="4" d="m3.121704,94.023727c2.760086,-4.78064 9.432327,-7.01651 19.179062,-6.969177c-7.008514,0.282745 -11.815765,2.152985 -13.898285,5.76004c-10.472961,18.139709 51.32547,73.403137 138.013977,123.452759c86.688522,50.049698 165.447311,75.936935 175.920242,57.797256c2.086823,-3.614532 1.304199,-8.730499 -1.972229,-14.958954c4.93338,8.435516 6.330017,15.348572 3.565521,20.136841c-11.64978,20.177917 -92.906998,-4.926025 -181.497894,-56.073929c-88.590927,-51.148041 -150.960159,-108.966858 -139.310394,-129.144836zm317.242767,165.081924c-6.519043,-11.146835 -19.242615,-24.968216 -36.613678,-40.083298c18.20224,15.563599 31.03299,29.474426 36.613678,40.083298zm-353.856476,-205.165207c292.500214,143.926208 257.823654,119.734436 217.830353,96.644318c-39.993317,-23.090118 -78.282242,-41.025055 -108.97496,-51.874908c31.189117,10.722595 69.467545,28.415802 109.25621,51.387787c39.788635,22.971954 74.25058,47.275513 99.131195,68.924713l-317.242798,-165.081909zm-171.773651,-80.229233c-21.801819,-7.4953 -40.147156,-11.592651 -53.062653,-11.655334c11.976654,-0.483154 30.45575,3.663849 53.062653,11.655334z" id="path2816-2-4-6" clip-path="url(#clipPath3940)"/>
    <path fill="#000000" stroke="#000000" stroke-width="3" stroke-miterlimit="4" d="m323.716919,94.110092c-2.760071,-4.78064 -9.432373,-7.016449 -19.179077,-6.969147c7.008545,0.282715 11.815735,2.152985 13.898315,5.76004c10.4729,18.139679 -51.3255,73.403137 -138.014008,123.452759c-86.688507,50.049637 -165.447266,75.936905 -175.920212,57.797256c-2.086838,-3.614502 -1.304199,-8.730591 1.972229,-14.958984c-4.933395,8.435577 -6.330017,15.348572 -3.565521,20.13681c11.649765,20.177948 92.906998,-4.925934 181.497879,-56.073929c88.590881,-51.14798 150.960114,-108.966858 139.310394,-129.144806zm-317.242783,165.081924c6.519043,-11.146835 19.242615,-24.968216 36.613693,-40.083267c-18.202255,15.563568 -31.033005,29.474426 -36.613693,40.083267zm353.856491,-205.165176c24.742554,-21.155731 59.419128,-45.347473 99.412415,-68.437592c39.993286,-23.090134 78.282227,-41.02507 108.974915,-51.874893c-31.189087,10.72261 -69.467529,28.415771 -109.256165,51.387756c-39.788635,22.972 -74.25061,47.275497 -99.131165,68.924759l0,-0.000031zm208.387329,-120.312485c21.801819,-7.495316 40.147156,-11.592667 53.062622,-11.655334c-11.976624,-0.483154 -30.45575,3.663849 -53.062622,11.655334z" id="path2816-2-49" clip-path="url(#clipPath4034)"/>
    <path fill="#000000" stroke="#000000" stroke-width="3" stroke-miterlimit="4" d="m323.716919,94.110092c-2.760071,-4.78064 -9.432373,-7.016449 -19.179077,-6.969147c7.008545,0.282715 11.815735,2.152985 13.898315,5.76004c10.4729,18.139679 -51.3255,73.403137 -138.014008,123.452759c-86.688507,50.049637 -165.447266,75.936905 -175.920212,57.797256c-2.086838,-3.614502 -1.304199,-8.730591 1.972229,-14.958984c-4.933395,8.435577 -6.330017,15.348572 -3.565521,20.13681c11.649765,20.177948 92.906998,-4.925934 181.497879,-56.073929c88.590881,-51.14798 150.960114,-108.966858 139.310394,-129.144806zm-317.242783,165.081924c6.519043,-11.146835 19.242615,-24.968216 36.613693,-40.083267c-18.202255,15.563568 -31.033005,29.474426 -36.613693,40.083267zm353.856491,-205.165176c24.742554,-21.155731 59.419128,-45.347473 99.412415,-68.437592c39.993286,-23.090134 78.282227,-41.02507 108.974915,-51.874893c-31.189087,10.72261 -69.467529,28.415771 -109.256165,51.387756c-39.788635,22.972 -74.25061,47.275497 -99.131165,68.924759l0,-0.000031zm208.387329,-120.312485c21.801819,-7.495316 40.147156,-11.592667 53.062622,-11.655334c-11.976624,-0.483154 -30.45575,3.663849 -53.062622,11.655334z" id="path2816-2-5" clip-path="url(#clipPath4081)"/>
   </g>
  </g>
 </g>
</svg>