<?xml version="1.0" standalone="no"?>
<!DOCTYPE svg PUBLIC "-//W3C//DTD SVG 20010904//EN"
 "http://www.w3.org/TR/2001/REC-SVG-20010904/DTD/svg10.dtd">
<svg version="1.0" xmlns="http://www.w3.org/2000/svg"
 width="35.000000pt" height="35.000000pt" viewBox="0 0 337.000000 350.000000"
 preserveAspectRatio="xMidYMid meet">

<g transform="translate(0.000000,300.000000) scale(0.100000,-0.100000)"
fill="#000000" stroke="none">
<path d="M920 2981 c-50 -16 -106 -50 -141 -88 -44 -45 -743 -1253 -758 -1309
-14 -52 -13 -141 3 -185 7 -20 172 -312 366 -650 245 -425 367 -626 395 -654
48 -48 94 -72 166 -85 69 -13 1399 -13 1468 0 72 14 119 38 166 85 53 54 749
1261 766 1328 16 66 6 153 -24 213 -72 140 -701 1215 -732 1252 -20 23 -60 55
-88 70 l-52 27 -755 2 c-415 1 -766 -2 -780 -6z m861 -362 c92 -46 189 -199
246 -387 27 -90 29 -93 53 -86 178 46 349 57 452 28 124 -35 193 -140 169
-256 -23 -107 -96 -230 -208 -349 l-65 -69 70 -79 c165 -187 226 -323 201
-443 -15 -67 -74 -128 -150 -154 -79 -28 -251 -26 -387 4 -57 13 -105 22 -106
20 -2 -2 -15 -42 -29 -90 -37 -120 -108 -256 -164 -316 -185 -197 -401 -67
-519 313 -16 50 -29 91 -30 93 -1 2 -49 -7 -106 -19 -146 -33 -319 -33 -400
-1 -108 43 -162 142 -139 255 23 107 77 197 208 345 l65 72 -71 76 c-158 169
-232 331 -201 443 14 54 72 119 130 144 69 32 245 35 375 8 55 -12 109 -23
120 -26 18 -5 23 4 43 77 33 119 102 255 163 322 94 103 179 126 280 75z"/>
<path d="M1644 2530 c-63 -25 -150 -165 -198 -318 -14 -46 -26 -89 -26 -96 0
-6 24 -20 53 -31 28 -10 87 -34 130 -52 l78 -34 132 53 c73 29 134 54 136 55
9 6 -43 162 -78 239 -69 147 -152 214 -227 184z"/>
<path d="M893 2080 c-186 -37 -160 -197 75 -459 l49 -55 79 63 c43 35 96 75
116 89 21 13 38 25 38 26 0 12 31 239 35 261 l7 31 -74 17 c-149 35 -245 42
-325 27z"/>
<path d="M2290 2081 c-30 -4 -90 -16 -133 -25 l-79 -18 7 -34 c3 -20 12 -86
20 -147 12 -97 17 -114 37 -127 12 -8 63 -47 113 -87 l90 -71 53 51 c68 66
133 155 172 238 48 102 38 164 -34 198 -48 23 -164 33 -246 22z"/>
<path d="M1386 1968 c-11 -65 -18 -138 -14 -138 5 0 179 99 186 105 3 3 -152
65 -162 65 -2 0 -6 -15 -10 -32z"/>
<path d="M1887 1969 c-43 -17 -77 -32 -75 -34 16 -15 181 -106 184 -102 7 7
-17 167 -25 167 -3 -1 -41 -15 -84 -31z"/>
<path d="M1600 1834 c-47 -25 -122 -68 -167 -96 l-83 -51 0 -189 0 -188 68
-44 c37 -24 111 -67 166 -96 l98 -53 65 32 c89 44 245 139 261 159 9 12 12 63
10 197 l-3 180 -68 46 c-38 25 -112 68 -165 97 l-97 51 -85 -45z m131 -267
c21 -16 39 -51 39 -77 0 -30 -53 -80 -85 -80 -38 0 -85 50 -85 90 0 61 83 104
131 67z"/>
<path d="M1165 1551 c-33 -27 -59 -52 -58 -56 2 -7 123 -105 129 -105 2 0 4
47 4 105 0 58 -3 105 -7 105 -5 -1 -35 -23 -68 -49z"/>
<path d="M2130 1494 l0 -106 38 28 c20 15 51 40 69 55 l32 28 -63 50 c-35 28
-67 51 -70 51 -3 0 -6 -48 -6 -106z"/>
<path d="M969 1373 c-124 -134 -199 -262 -199 -339 0 -86 67 -124 218 -124 78
0 278 33 294 48 4 4 1 50 -7 102 -8 52 -17 116 -20 142 -6 44 -10 50 -77 100
-39 29 -89 67 -111 85 -21 18 -42 33 -47 33 -4 0 -27 -21 -51 -47z"/>
<path d="M2260 1357 c-42 -34 -90 -73 -108 -87 -32 -24 -34 -29 -48 -140 -26
-189 -31 -171 56 -193 98 -24 280 -33 339 -17 98 26 123 91 77 202 -36 89
-199 299 -229 297 -7 0 -46 -28 -87 -62z"/>
<path d="M1370 1142 c1 -15 6 -55 13 -89 l12 -62 78 30 c42 17 77 34 77 37 0
4 -41 30 -90 59 l-90 51 0 -26z"/>
<path d="M1901 1112 c-77 -45 -91 -57 -75 -63 10 -4 49 -19 86 -33 l66 -25 12
85 c7 47 11 87 9 89 -2 1 -46 -22 -98 -53z"/>
<path d="M1658 984 c-12 -6 -71 -31 -130 -54 -69 -27 -108 -48 -108 -57 0 -28
61 -197 93 -257 18 -34 53 -82 78 -108 42 -44 49 -48 93 -48 43 0 51 4 94 48
53 53 107 155 146 277 14 44 26 84 26 90 0 6 -60 35 -134 66 -117 48 -137 54
-158 43z"/>
</g>
</svg>
